name D:\Dropbox\PhD\Testing MOtoNMS\ElaboratedData\Subject8\30-07-18\dynamicElaborations\right\PassiveA1\PassiveA1.mot
datacolumns 19
datarows 35
range 0.96000000000000 1.01667000000000
endheader
time	    ground_force1_vx	    ground_force1_vy	    ground_force1_vz	    ground_force1_px	    ground_force1_py	    ground_force1_pz	    ground_force2_vx	    ground_force2_vy	    ground_force2_vz	    ground_force2_px	    ground_force2_py	    ground_force2_pz	    ground_torque1_x	    ground_torque1_y	    ground_torque1_z	    ground_torque2_x	    ground_torque2_y	    ground_torque2_z	
0.96000000000000	0.45833436000000	15.03273141000000	2.50019333000000	-0.00000000000000	0.00000000000000	-0.00000000000000	-49.15191701000000	506.41942956999998	-39.15098308000000	0.21130645000000	0.00000000000000	0.07487526000000	-0.00000000000000	0.17386232000000	0.00000000000000	-0.00000000000000	0.88100477000000	0.00000000000000	
0.96166700000000	0.72159144000000	19.49402996000000	3.17980729000000	-0.00000000000000	0.00000000000000	-0.00000000000000	-49.35695944000000	505.55247057999998	-39.18387542000000	0.21181753000000	0.00000000000000	0.07489269000000	-0.00000000000000	0.19494836000000	0.00000000000000	-0.00000000000000	0.89277180000000	0.00000000000000	
0.96333300000000	1.03626246000000	24.21446331000000	3.88099057000000	-0.14146541000000	-0.00000000000000	-0.20388372000000	-49.56273710000000	504.67894766000001	-39.21795195000000	0.21233216000000	0.00000000000000	0.07491028000000	0.00000000000000	-0.12918656000000	-0.00000000000000	-0.00000000000000	0.90496818000000	0.00000000000000	
0.96500000000000	1.40138887000000	29.07042177000000	4.58168941000000	-0.14198930000000	-0.00000000000000	-0.20370349000000	-49.76907138000000	503.79855805000000	-39.25308489000000	0.21285026000000	0.00000000000000	0.07492800000000	0.00000000000000	-0.15250224000000	-0.00000000000000	-0.00000000000000	0.91757064000000	0.00000000000000	
0.96666700000000	1.81456947000000	33.93836154000000	5.26053962000000	-0.14244344000000	-0.00000000000000	-0.20351606000000	-49.97577131000000	502.91095875000002	-39.28914171000000	0.21337165000000	0.00000000000000	0.07494585000000	0.00000000000000	-0.17481226000000	-0.00000000000000	-0.00000000000000	0.93055723000000	0.00000000000000	
0.96833300000000	2.27219858000000	38.70481036000000	5.89856166000000	-0.14283204000000	-0.00000000000000	-0.20332264000000	-50.18263397000000	502.01576569999997	-39.32598502000000	0.21389615000000	0.00000000000000	0.07496380000000	0.00000000000000	-0.19533165000000	-0.00000000000000	-0.00000000000000	0.94390728000000	0.00000000000000	
0.97000000000000	2.76977489000000	43.27472998000000	6.48052413000000	-0.14315985000000	-0.00000000000000	-0.20312437000000	-50.38944495000000	501.11255323000000	-39.36347241000000	0.21442350000000	0.00000000000000	0.07498182000000	0.00000000000000	-0.21343156000000	-0.00000000000000	-0.00000000000000	0.95760137000000	0.00000000000000	
0.97166700000000	3.30224309000000	47.57737351000000	6.99583813000000	-0.14343202000000	-0.00000000000000	-0.20292231000000	-50.59597895000000	500.20085374000001	-39.40145631000000	0.21495340000000	0.00000000000000	0.07499990000000	0.00000000000000	-0.22868298000000	-0.00000000000000	-0.00000000000000	0.97162141000000	0.00000000000000	
0.97333300000000	3.86433313000000	51.56929673000000	7.43893798000000	-0.14365388000000	-0.00000000000000	-0.20271742000000	-50.80200040000000	499.28015753000000	-39.43978393000000	0.21548551000000	0.00000000000000	0.07501800000000	0.00000000000000	-0.24087643000000	-0.00000000000000	-0.00000000000000	0.98595050000000	0.00000000000000	
0.97500000000000	4.45086885000000	55.23461517000000	7.80917887000000	-0.14383082000000	-0.00000000000000	-0.20251060000000	-51.00726411000000	498.34991301999997	-39.47829713000000	0.21601945000000	0.00000000000000	0.07503608000000	0.00000000000000	-0.25001847000000	-0.00000000000000	-0.00000000000000	1.00057298000000	0.00000000000000	
0.97666700000000	5.05702520000000	58.58289675000000	8.11033216000000	-0.14396815000000	-0.00000000000000	-0.20230263000000	-51.21151602000000	497.40952708999998	-39.51683245000000	0.21655479000000	0.00000000000000	0.07505410000000	0.00000000000000	-0.25630887000000	-0.00000000000000	-0.00000000000000	1.01547429000000	0.00000000000000	
0.97833300000000	5.67852162000000	61.64525316000000	8.34978636000000	-0.14407101000000	-0.00000000000000	-0.20209423000000	-51.41449392000000	496.45836572000002	-39.55522099000000	0.21709109000000	0.00000000000000	0.07507202000000	0.00000000000000	-0.26010398000000	-0.00000000000000	-0.00000000000000	1.03064095000000	0.00000000000000	
0.98000000000000	6.31174678000000	64.46926447000000	8.53757100000000	-0.14414426000000	-0.00000000000000	-0.20188605000000	-51.61592829000000	495.49575493999998	-39.59328850000000	0.21762786000000	0.00000000000000	0.07508979000000	0.00000000000000	-0.26187189000000	-0.00000000000000	-0.00000000000000	1.04606042000000	0.00000000000000	
0.98166700000000	6.95381642000000	67.11336231999999	8.68531555000000	-0.14419247000000	-0.00000000000000	-0.20167866000000	-51.81554303000000	494.52098188000002	-39.63085532000000	0.21816460000000	0.00000000000000	0.07510737000000	0.00000000000000	-0.26214531000000	-0.00000000000000	-0.00000000000000	1.06172101000000	0.00000000000000	
0.98333300000000	7.60257109000000	69.64122985000000	8.80524107000000	-0.14421984000000	-0.00000000000000	-0.20147255000000	-52.01305638000000	493.53329622000001	-39.66773652000000	0.21870076000000	0.00000000000000	0.07512470000000	0.00000000000000	-0.26147662000000	-0.00000000000000	-0.00000000000000	1.07761172000000	0.00000000000000	
0.98500000000000	8.25652429000000	72.11667193000000	8.90926144000000	-0.14423019000000	-0.00000000000000	-0.20126817000000	-52.20818167000000	492.53191177000002	-39.70374188000000	0.21923582000000	0.00000000000000	0.07514173000000	0.00000000000000	-0.26039872000000	-0.00000000000000	-0.00000000000000	1.09372213000000	0.00000000000000	
0.98666700000000	8.91477348000000	74.59928605000000	9.00824760000000	-0.14422693000000	-0.00000000000000	-0.20106591000000	-52.40062823000000	491.51600832000003	-39.73867606000000	0.21976921000000	0.00000000000000	0.07515842000000	0.00000000000000	-0.25939396000000	-0.00000000000000	-0.00000000000000	1.11004216000000	0.00000000000000	
0.98833300000000	9.57688693000000	77.14113638000001	9.11148512000000	-0.14421305000000	-0.00000000000000	-0.20086610000000	-52.59010227000000	490.48473367000003	-39.77233869000000	0.22030038000000	0.00000000000000	0.07517469000000	0.00000000000000	-0.25887214000000	-0.00000000000000	-0.00000000000000	1.12656197000000	0.00000000000000	
0.99000000000000	10.24277910000000	79.78451471000000	9.22633388000000	-0.14419116000000	-0.00000000000000	-0.20066903000000	-52.77630775000000	489.43720590999999	-39.80452452000000	0.22082878000000	0.00000000000000	0.07519051000000	0.00000000000000	-0.25915774000000	-0.00000000000000	-0.00000000000000	1.14327169000000	0.00000000000000	
0.99166700000000	10.91258561000000	82.56076846000001	9.35808072000000	-0.14416347000000	-0.00000000000000	-0.20047496000000	-52.95894735000000	488.37251586999997	-39.83502358000000	0.22135386000000	0.00000000000000	0.07520581000000	0.00000000000000	-0.26048544000000	-0.00000000000000	-0.00000000000000	1.16016127000000	0.00000000000000	
0.99333300000000	11.58654684000000	85.49009543000000	9.50996255000000	-0.14413182000000	-0.00000000000000	-0.20028411000000	-53.13772342000000	487.28972967999999	-39.86362141000000	0.22187508000000	0.00000000000000	0.07522055000000	0.00000000000000	-0.26300285000000	-0.00000000000000	-0.00000000000000	1.17722024000000	0.00000000000000	
0.99500000000000	12.26490701000000	88.58214709000001	9.68332775000000	-0.14409767000000	-0.00000000000000	-0.20009667000000	-53.31233896000000	486.18789160000000	-39.89009925000000	0.22239192000000	0.00000000000000	0.07523466000000	0.00000000000000	-0.26677864000000	-0.00000000000000	-0.00000000000000	1.19443750000000	0.00000000000000	
0.99666700000000	12.94783293000000	91.83724882999999	9.87789923000000	-0.14406219000000	-0.00000000000000	-0.19991279000000	-53.48249869000000	485.06602693999997	-39.91423435000000	0.22290390000000	0.00000000000000	0.07524810000000	0.00000000000000	-0.27181452000000	-0.00000000000000	-0.00000000000000	1.21180114000000	0.00000000000000	
0.99833300000000	13.63535460000000	95.24803395000001	10.09210129000000	-0.14402622000000	-0.00000000000000	-0.19973260000000	-53.64791015000000	483.92314510000000	-39.93580022000000	0.22341053000000	0.00000000000000	0.07526081000000	0.00000000000000	-0.27805929000000	-0.00000000000000	-0.00000000000000	1.22929816000000	0.00000000000000	
1.00000000000000	14.32732756000000	98.80129426000001	10.32341472000000	-0.14399032000000	-0.00000000000000	-0.19955623000000	-53.80828478000000	482.75824273000001	-39.95456701000000	0.22391139000000	0.00000000000000	0.07527276000000	0.00000000000000	-0.28542354000000	-0.00000000000000	-0.00000000000000	1.24691434000000	0.00000000000000	
1.00167000000000	15.02341543000000	102.47987094000000	10.56872896000000	-0.14395482000000	-0.00000000000000	-0.19938375000000	-53.96333913000000	481.57030707000001	-39.97030188000000	0.22440606000000	0.00000000000000	0.07528389000000	0.00000000000000	-0.29379381000000	-0.00000000000000	-0.00000000000000	1.26463400000000	0.00000000000000	
1.00333000000000	15.72309001000000	106.26443976000000	10.82466638000000	-0.14391979000000	-0.00000000000000	-0.19921525000000	-54.11279600000000	480.35831930000001	-39.98276939000000	0.22489420000000	0.00000000000000	0.07529417000000	0.00000000000000	-0.30304521000000	-0.00000000000000	-0.00000000000000	1.28243986000000	0.00000000000000	
1.00500000000000	16.42564521000000	110.13508057000000	11.08786054000000	-0.14388513000000	-0.00000000000000	-0.19905079000000	-54.25638567000000	479.12125803999999	-39.99173201000000	0.22537549000000	0.00000000000000	0.07530355000000	0.00000000000000	-0.31305193000000	-0.00000000000000	-0.00000000000000	1.30031286000000	0.00000000000000	
1.00667000000000	17.13022123000000	114.07255815000001	11.35517717000000	-0.14385055000000	-0.00000000000000	-0.19889039000000	-54.39384711000000	477.85810289000000	-39.99695060000000	0.22584965000000	0.00000000000000	0.07531200000000	0.00000000000000	-0.32369530000000	-0.00000000000000	-0.00000000000000	1.31823204000000	0.00000000000000	
1.00833000000000	17.83583496000000	118.05927757000001	11.62387309000000	-0.14381559000000	-0.00000000000000	-0.19873410000000	-54.52492909000000	476.56783806999999	-39.99818497000000	0.22631646000000	0.00000000000000	0.07531948000000	0.00000000000000	-0.33486921000000	-0.00000000000000	-0.00000000000000	1.33617445000000	0.00000000000000	
1.01000000000000	18.54141335000000	122.07990877000000	11.89169389000000	-0.14377967000000	-0.00000000000000	-0.19858192000000	-54.64939137000000	475.24945607000001	-39.99519445000000	0.22677577000000	0.00000000000000	0.07532598000000	0.00000000000000	-0.34648323000000	-0.00000000000000	-0.00000000000000	1.35411508000000	0.00000000000000	
1.01167000000000	19.24582654000000	126.12170089000000	12.15691567000000	-0.14374208000000	-0.00000000000000	-0.19843386000000	-54.76700576000000	473.90196141000001	-39.98773855000000	0.22722745000000	0.00000000000000	0.07533145000000	0.00000000000000	-0.35846343000000	-0.00000000000000	-0.00000000000000	1.37202679000000	0.00000000000000	
1.01333000000000	19.94791863000000	130.17452641000000	12.41833905000000	-0.14370200000000	-0.00000000000000	-0.19828993000000	-54.87755706000000	472.52437437999998	-39.97557758000000	0.22767145000000	0.00000000000000	0.07533588000000	0.00000000000000	-0.37075153000000	-0.00000000000000	-0.00000000000000	1.38988041000000	0.00000000000000	
1.01500000000000	20.64653426000000	134.23070745999999	12.67524593000000	-0.14365852000000	-0.00000000000000	-0.19815012000000	-54.98084401000000	471.11573477000002	-39.95847333000000	0.22810778000000	0.00000000000000	0.07533925000000	0.00000000000000	-0.38330270000000	-0.00000000000000	-0.00000000000000	1.40764467000000	0.00000000000000	
1.01667000000000	21.34054019000000	138.28468293000000	12.92733003000000	-0.14361066000000	-0.00000000000000	-0.19801440000000	-55.07668000000000	469.67510565999999	-39.93618980000000	0.22853649000000	0.00000000000000	0.07534155000000	0.00000000000000	-0.39608244000000	-0.00000000000000	-0.00000000000000	1.42528637000000	0.00000000000000	
